<svg width="129" height="40" viewBox="0 0 129 40" fill="none" xmlns="http://www.w3.org/2000/svg">
<g clip-path="url(#clip0_4_620)">
<path d="M15.9451 21.4995L13.0694 20.1956L13.0802 19.1706C13.0802 18.4788 12.4717 17.8884 11.2548 17.4067C10.4109 17.0735 9.48732 16.9105 8.48044 16.9105C7.47356 16.9105 6.54998 17.0771 5.70609 17.4067C4.48913 17.8993 3.88066 18.4861 3.88066 19.1706V32.586C3.88066 33.2778 4.48913 33.8682 5.70609 34.3499C6.54998 34.6831 7.47356 34.8461 8.48044 34.8461C9.48732 34.8461 10.4109 34.6795 11.2548 34.3499C12.4717 33.8573 13.0802 33.2706 13.0802 32.586V28.9678H13.2323L16.0972 30.326V32.586C16.0972 34.4259 14.9564 35.8167 12.6746 36.762C11.3997 37.2945 10.0016 37.5625 8.48406 37.5625C6.9665 37.5625 5.56845 37.2945 4.29355 36.762C2.01177 35.8131 0.87088 34.4223 0.87088 32.5824V19.167C0.87088 17.3271 2.01177 15.9363 4.29355 14.9909C5.56845 14.4585 6.9665 14.1905 8.48406 14.1905C10.0016 14.1905 11.3997 14.4585 12.6746 14.9909C14.9564 15.9363 16.0972 17.3271 16.0972 19.167V21.4995H15.9451Z" fill="#81FE88"/>
<path d="M16.0936 30.3224C16.0936 30.3224 13.4967 29.1996 13.0694 27.9102L13.0802 29.4748L16.0936 30.3224Z" fill="#81FE88"/>
<path d="M13.0259 22.1043L15.9017 23.4082L15.8908 24.4332C15.8908 25.125 16.4993 25.7153 17.7162 26.197C18.5601 26.5302 19.4837 26.6932 20.4906 26.6932C21.4938 26.6932 22.421 26.5266 23.2649 26.197C24.4819 25.7045 25.0904 25.1177 25.0904 24.4332V11.0214C25.0904 10.3296 24.4819 9.73923 23.2649 9.25752C22.421 8.92431 21.4975 8.76132 20.4906 8.76132C19.4873 8.76132 18.5601 8.92793 17.7162 9.25752C16.4993 9.75009 15.8908 10.3368 15.8908 11.0214V14.6396H15.7387L12.8738 13.2814V11.0214C12.8738 9.18146 14.0147 7.79066 16.2965 6.84535C17.5714 6.31293 18.9694 6.04491 20.487 6.04491C22.0045 6.04491 23.4026 6.31293 24.6775 6.84535C26.9593 7.79066 28.1001 9.18146 28.1001 11.0214V24.4368C28.1001 26.2767 26.9593 27.6675 24.6775 28.6128C23.4026 29.1452 22.0045 29.4133 20.487 29.4133C18.9694 29.4133 17.5714 29.1452 16.2965 28.6128C14.0147 27.6675 12.8738 26.2767 12.8738 24.4368V22.1043H13.0259Z" fill="#81FE88"/>
<path d="M12.8774 13.2814C12.8774 13.2814 15.4743 14.4042 15.9017 15.6936L15.8908 14.1289L12.8774 13.2814Z" fill="#81FE88"/>
<path d="M45.6481 31.8435V34.6179C45.6481 35.7371 44.8549 36.6135 43.2686 37.2401C42.4102 37.5697 41.4431 37.7363 40.3638 37.7363C39.2845 37.7363 38.3175 37.5697 37.4591 37.2401C35.8727 36.6135 35.0795 35.7371 35.0795 34.6179V26.3419C35.0795 25.2227 35.8727 24.3463 37.4591 23.7197C38.3175 23.3901 39.2845 23.2235 40.3638 23.2235C41.4431 23.2235 42.4102 23.3901 43.2686 23.7197C44.8549 24.3463 45.6481 25.2227 45.6481 26.3419V27.9718L43.2287 29.1163H43.102V26.7874C43.102 26.3636 42.8376 26.0449 42.3051 25.8312C41.7763 25.6175 41.128 25.5125 40.3638 25.5125C39.5996 25.5125 38.9513 25.6175 38.4225 25.8312C37.8937 26.0449 37.6257 26.36 37.6257 26.7874V34.1724C37.6257 34.5962 37.8901 34.9149 38.4225 35.1286C38.9513 35.3423 39.5996 35.4473 40.3638 35.4473C41.128 35.4473 41.7763 35.3423 42.3051 35.1286C42.8339 34.9149 43.102 34.5998 43.102 34.1724V32.9881L45.5214 31.8435H45.6481Z" fill="#E1E1E1"/>
<path d="M49.3388 34.6179V26.3419C49.3388 25.2227 50.132 24.3463 51.7184 23.7197C52.5768 23.3901 53.5438 23.2235 54.6232 23.2235C55.7025 23.2235 56.6695 23.3901 57.5279 23.7197C59.1143 24.3463 59.9075 25.2227 59.9075 26.3419V34.6179C59.9075 35.7371 59.1143 36.6135 57.5279 37.2401C56.6695 37.5697 55.7025 37.7363 54.6232 37.7363C53.5438 37.7363 52.5768 37.5697 51.7184 37.2401C50.132 36.6135 49.3388 35.7371 49.3388 34.6179ZM51.885 34.1724C51.885 34.5962 52.1494 34.9149 52.6818 35.1286C53.2142 35.3423 53.8589 35.4473 54.6232 35.4473C55.3874 35.4473 56.0357 35.3423 56.5645 35.1286C57.0933 34.9149 57.3613 34.5998 57.3613 34.1724V26.7874C57.3613 26.3636 57.0969 26.0449 56.5645 25.8312C56.0321 25.6175 55.3874 25.5125 54.6232 25.5125C53.8589 25.5125 53.2106 25.6175 52.6818 25.8312C52.153 26.0449 51.885 26.36 51.885 26.7874V34.1724Z" fill="#E1E1E1"/>
<path d="M63.5945 37.9935V26.3419C63.5945 25.2046 64.3877 24.3318 65.9741 23.7197C66.8325 23.3901 67.7995 23.2235 68.8789 23.2235C69.9582 23.2235 70.9252 23.3901 71.7836 23.7197C73.37 24.3318 74.1632 25.2046 74.1632 26.3419V36.8453L71.7438 36.9033H71.617V26.7838C71.617 26.36 71.3526 26.0413 70.8202 25.8276C70.2914 25.6139 69.6431 25.5089 68.8789 25.5089C68.1146 25.5089 67.4663 25.6139 66.9375 25.8276C66.4087 26.0413 66.1407 26.3564 66.1407 26.7838V36.8417L63.7213 37.9862H63.5945V37.9935Z" fill="#E1E1E1"/>
<path d="M77.8539 37.9935V26.3419C77.8539 25.2046 78.647 24.3318 80.2334 23.7197C81.0918 23.3901 82.0588 23.2235 83.1382 23.2235C84.2175 23.2235 85.1845 23.3901 86.0429 23.7197C87.6293 24.3318 88.4225 25.2046 88.4225 26.3419V36.8453L86.0031 37.9899H85.8763V26.7838C85.8763 26.36 85.6119 26.0413 85.0795 25.8276C84.5507 25.6139 83.9024 25.5089 83.1382 25.5089C82.374 25.5089 81.7256 25.6139 81.1968 25.8276C80.668 26.0413 80.4 26.3564 80.4 26.7838V36.8417L77.9806 37.9862H77.8539V37.9935Z" fill="#E1E1E1"/>
<path d="M102.682 31.8435V34.6179C102.682 35.7371 101.889 36.6135 100.302 37.2401C99.4439 37.5697 98.4768 37.7363 97.3975 37.7363C96.3182 37.7363 95.3511 37.5697 94.4928 37.2401C92.9064 36.6135 92.1132 35.7371 92.1132 34.6179V26.3419C92.1132 25.2227 92.9064 24.3463 94.4928 23.7197C95.3511 23.3901 96.3182 23.2235 97.3975 23.2235C98.4768 23.2235 99.4439 23.3901 100.302 23.7197C101.889 24.3463 102.682 25.2227 102.682 26.3419V27.9718L94.6594 34.1398C94.6594 34.5744 94.9238 34.9004 95.4562 35.1177C95.985 35.335 96.6333 35.4437 97.3975 35.4437C98.1617 35.4437 98.81 35.3386 99.3388 35.125C99.8676 34.9113 100.136 34.5962 100.136 34.1688V32.9844L102.555 31.8399H102.682V31.8435ZM94.6594 31.4886L100.136 27.2872V26.9576C100.136 26.4759 99.8712 26.1173 99.3388 25.8783C98.8064 25.6393 98.1617 25.5197 97.3975 25.5197C96.6333 25.5197 95.985 25.6248 95.4562 25.8385C94.9274 26.0522 94.6594 26.3673 94.6594 26.7946V31.4922V31.4886Z" fill="#E1E1E1"/>
<path d="M116.938 31.8435V34.6179C116.938 35.7371 116.144 36.6135 114.558 37.2401C113.7 37.5697 112.733 37.7363 111.653 37.7363C110.574 37.7363 109.607 37.5697 108.748 37.2401C107.162 36.6135 106.369 35.7371 106.369 34.6179V26.3419C106.369 25.2227 107.162 24.3463 108.748 23.7197C109.607 23.3901 110.574 23.2235 111.653 23.2235C112.733 23.2235 113.7 23.3901 114.558 23.7197C116.144 24.3463 116.938 25.2227 116.938 26.3419V27.9718L114.518 29.1163H114.391V26.7874C114.391 26.3636 114.127 26.0449 113.595 25.8312C113.062 25.6175 112.417 25.5125 111.653 25.5125C110.889 25.5125 110.241 25.6175 109.712 25.8312C109.183 26.0449 108.915 26.36 108.915 26.7874V34.1724C108.915 34.5962 109.179 34.9149 109.712 35.1286C110.244 35.3423 110.889 35.4473 111.653 35.4473C112.417 35.4473 113.066 35.3423 113.595 35.1286C114.123 34.9149 114.391 34.5998 114.391 34.1724V32.9881L116.811 31.8435H116.938Z" fill="#E1E1E1"/>
<path d="M122.309 37.9935V25.795H119.035V25.6682L120.067 23.477H122.309V18.8917L124.728 17.7472H124.855V23.477H128.129V23.6038L127.097 25.795H124.855V36.849L122.436 37.9935H122.309Z" fill="#E1E1E1"/>
<path d="M45.6445 14.0963V16.8707C45.6445 17.9899 44.8513 18.8663 43.2649 19.4929C42.4065 19.8225 41.4395 19.9891 40.3602 19.9891C39.2809 19.9891 38.3138 19.8225 37.4554 19.4929C35.8691 18.8663 35.0759 17.9899 35.0759 16.8707V8.59471C35.0759 7.47555 35.8691 6.59905 37.4554 5.97247C38.3138 5.64288 39.2809 5.47627 40.3602 5.47627C41.4395 5.47627 42.4065 5.64288 43.2649 5.97247C44.8513 6.59905 45.6445 7.47555 45.6445 8.59471V10.2246L43.2251 11.3691H43.0983V9.0402C43.0983 8.61644 42.8339 8.29771 42.3015 8.08402C41.7727 7.87033 41.1244 7.7653 40.3602 7.7653C39.596 7.7653 38.9477 7.87033 38.4189 8.08402C37.8901 8.29771 37.622 8.61282 37.622 9.0402V16.4252C37.622 16.849 37.8864 17.1677 38.4189 17.3814C38.9477 17.5951 39.596 17.7001 40.3602 17.7001C41.1244 17.7001 41.7727 17.5951 42.3015 17.3814C42.8303 17.1677 43.0983 16.8526 43.0983 16.4252V15.2409L45.5177 14.0963H45.6445Z" fill="#888888"/>
<path d="M49.3352 16.8707V8.59471C49.3352 7.47555 50.1284 6.59905 51.7148 5.97247C52.5732 5.64288 53.5402 5.47627 54.6195 5.47627C55.6988 5.47627 56.6659 5.64288 57.5243 5.97247C59.1106 6.59905 59.9038 7.47555 59.9038 8.59471V16.8707C59.9038 17.9899 59.1106 18.8663 57.5243 19.4929C56.6659 19.8225 55.6988 19.9891 54.6195 19.9891C53.5402 19.9891 52.5732 19.8225 51.7148 19.4929C50.1284 18.8663 49.3352 17.9899 49.3352 16.8707ZM51.8814 16.4252C51.8814 16.849 52.1458 17.1677 52.6782 17.3814C53.2106 17.5951 53.8553 17.7001 54.6195 17.7001C55.3837 17.7001 56.0321 17.5951 56.5608 17.3814C57.0896 17.1677 57.3577 16.8526 57.3577 16.4252V9.0402C57.3577 8.61644 57.0933 8.29771 56.5608 8.08402C56.0284 7.87033 55.3837 7.7653 54.6195 7.7653C53.8553 7.7653 53.207 7.87033 52.6782 8.08402C52.1494 8.29771 51.8814 8.61282 51.8814 9.0402V16.4252Z" fill="#888888"/>
<path d="M63.5909 16.8707V8.59471C63.5909 7.45744 64.3841 6.58457 65.9705 5.97247C66.8288 5.64288 67.7959 5.47628 68.8752 5.47628C69.8857 5.47628 70.7984 5.62115 71.6133 5.9109V1.14451L74.0327 0H74.1595V16.8707C74.1595 18.008 73.3663 18.8808 71.7799 19.4929C70.9216 19.8225 69.9545 19.9891 68.8752 19.9891C67.7959 19.9891 66.8288 19.8225 65.9705 19.4929C64.3841 18.8664 63.5909 17.9899 63.5909 16.8707ZM66.1371 16.4252C66.1371 16.849 66.4015 17.1677 66.9339 17.3814C67.4627 17.5951 68.111 17.7001 68.8752 17.7001C69.6394 17.7001 70.2877 17.5951 70.8165 17.3814C71.3453 17.1677 71.6133 16.8526 71.6133 16.4252V9.0402C71.6133 8.61644 71.3489 8.29772 70.8165 8.08403C70.2877 7.87034 69.6394 7.7653 68.8752 7.7653C68.111 7.7653 67.4627 7.87034 66.9339 8.08403C66.4051 8.29772 66.1371 8.61282 66.1371 9.0402V16.4252Z" fill="#888888"/>
<path d="M89.0563 14.0963V16.8707C89.0563 17.9899 88.2631 18.8663 86.6767 19.4929C85.8183 19.8225 84.8513 19.9891 83.772 19.9891C82.6927 19.9891 81.7256 19.8225 80.8672 19.4929C79.2809 18.8663 78.4877 17.9899 78.4877 16.8707V8.59471C78.4877 7.47555 79.2809 6.59905 80.8672 5.97247C81.7256 5.64288 82.6927 5.47627 83.772 5.47627C84.8513 5.47627 85.8183 5.64288 86.6767 5.97247C88.2631 6.59905 89.0563 7.47555 89.0563 8.59471V10.2246L81.0338 16.3926C81.0338 16.8272 81.2982 17.1532 81.8307 17.3705C82.3595 17.5878 83.0078 17.6965 83.772 17.6965C84.5362 17.6965 85.1845 17.5914 85.7133 17.3778C86.2421 17.1641 86.5101 16.849 86.5101 16.4216V15.2372L88.9295 14.0927H89.0563V14.0963ZM81.0338 13.7414L86.5101 9.54002V9.21043C86.5101 8.72872 86.2457 8.37015 85.7133 8.13111C85.1845 7.89206 84.5362 7.77254 83.772 7.77254C83.0078 7.77254 82.3595 7.87758 81.8307 8.09127C81.3019 8.30496 81.0338 8.62006 81.0338 9.04744V13.745V13.7414Z" fill="#888888"/>
<path d="M77.8611 36.2658V36.5592C77.8611 38.2325 74.1414 38.0695 74.1414 36.5592V36.2658H71.6025V37.0047C71.6025 38.1383 72.3957 39.0112 73.9784 39.6197C75.2859 40.1231 76.7093 40.1268 78.0277 39.6197C79.6104 39.0112 80.4 38.1383 80.4 37.0047V36.2658H77.8611Z" fill="#81FE88"/>
</g>
<defs>
<clipPath id="clip0_4_620">
<rect width="127.258" height="40" fill="white" transform="translate(0.87088)"/>
</clipPath>
</defs>
</svg>
